solid OpenSCAD_Model
  facet normal -0 0 1
    outer loop
      vertex 0 1.54919 1.54919
      vertex 1.54919 0 1.54919
      vertex 1.54919 1.54919 1.54919
    endloop
  endfacet
  facet normal 0 0 1
    outer loop
      vertex 1.54919 0 1.54919
      vertex 0 1.54919 1.54919
      vertex 0 0 1.54919
    endloop
  endfacet
  facet normal 0 0 -1
    outer loop
      vertex 0 0 0
      vertex 1.54919 1.54919 0
      vertex 1.54919 0 0
    endloop
  endfacet
  facet normal -0 0 -1
    outer loop
      vertex 1.54919 1.54919 0
      vertex 0 0 0
      vertex 0 1.54919 0
    endloop
  endfacet
  facet normal 0 -1 0
    outer loop
      vertex 0 0 0
      vertex 1.54919 0 1.54919
      vertex 0 0 1.54919
    endloop
  endfacet
  facet normal 0 -1 -0
    outer loop
      vertex 1.54919 0 1.54919
      vertex 0 0 0
      vertex 1.54919 0 0
    endloop
  endfacet
  facet normal 1 -0 0
    outer loop
      vertex 1.54919 0 1.54919
      vertex 1.54919 1.54919 0
      vertex 1.54919 1.54919 1.54919
    endloop
  endfacet
  facet normal 1 0 0
    outer loop
      vertex 1.54919 1.54919 0
      vertex 1.54919 0 1.54919
      vertex 1.54919 0 0
    endloop
  endfacet
  facet normal 0 1 -0
    outer loop
      vertex 1.54919 1.54919 0
      vertex 0 1.54919 1.54919
      vertex 1.54919 1.54919 1.54919
    endloop
  endfacet
  facet normal 0 1 0
    outer loop
      vertex 0 1.54919 1.54919
      vertex 1.54919 1.54919 0
      vertex 0 1.54919 0
    endloop
  endfacet
  facet normal -1 0 0
    outer loop
      vertex 0 0 0
      vertex 0 1.54919 1.54919
      vertex 0 1.54919 0
    endloop
  endfacet
  facet normal -1 -0 0
    outer loop
      vertex 0 1.54919 1.54919
      vertex 0 0 0
      vertex 0 0 1.54919
    endloop
  endfacet
endsolid OpenSCAD_Model
